
<svg height="800px" width="800px" version="1.1" id="Layer_1" xmlns="http://www.w3.org/2000/svg" xmlns:xlink="http://www.w3.org/1999/xlink" viewBox="-51.2 -51.2 614.40 614.40" xml:space="preserve" fill="#1e1b4b">
<g id="SVGRepo_bgCarrier" stroke-width="0" transform="translate(0,0), scale(1)">
<path transform="translate(-51.2, -51.2), scale(38.4)" fill="#eef2ff" d="M9.166.33a2.25 2.25 0 00-2.332 0l-5.25 3.182A2.25 2.25 0 00.5 5.436v5.128a2.25 2.25 0 001.084 1.924l5.25 3.182a2.25 2.25 0 002.332 0l5.25-3.182a2.25 2.25 0 001.084-1.924V5.436a2.25 2.25 0 00-1.084-1.924L9.166.33z" strokewidth="0"/>
</g>
<g id="SVGRepo_tracerCarrier" strokeLinecap="round" strokeLinejoin="round" stroke="#c7d2fe" stroke-width="5.12001"/>
<g id="SVGRepo_iconCarrier"> <path style="fill:#4f46e5;" d="M256.011,221.386c1.139,1.725,74.807,113.323,122.67,110.747c0,37.473-17.182,60.361-36.813,72.039 L256.011,221.386z"/> <g> <path style="fill:#3730a3;" d="M256.011,221.386l85.857,182.786c-11.167,6.643-23.133,9.656-33.172,9.656 c-27.679,0-52.696-25.017-52.696-54.293v-138.17L256.011,221.386z"/> <path style="fill:#3730a3;" d="M256,221.365v138.17c0,29.276-25.017,54.293-52.696,54.293c-8.367,0-18.076-2.097-27.54-6.643 l80.226-185.798L256,221.365z"/> </g> <path style="fill:#4f46e5;" d="M255.989,221.386l-80.226,185.798c-21.855-10.475-42.444-34.023-42.444-75.052 C181.182,334.709,254.85,223.111,255.989,221.386z"/> <g> <path style="fill:#818cf8;" d="M256,190.801v30.564l-0.011,0.021c-1.139,1.725-74.807,113.323-122.67,110.747 c-48.235-2.598-119.423-80.428-122.616-118.752S141.634,135.135,256,190.801z"/> <path style="fill:#818cf8;" d="M256,190.801c114.366-55.666,248.491-15.745,245.297,22.579S426.916,329.535,378.68,332.133 c-47.863,2.576-121.531-109.022-122.67-110.747L256,221.365V190.801z"/> </g> <path d="M135.009,342.824c-0.759,0-1.513-0.02-2.262-0.061c-35.044-1.886-71.262-34.99-85.208-49.135 C25.978,271.757,2.19,239.423,0.094,214.265c-0.718-8.609,2.349-21.557,21.033-34.352c22.465-15.385,60.32-25.492,101.263-27.039 c33.877-1.28,85.358,2.602,138.269,28.355c5.287,2.573,7.486,8.944,4.913,14.231c-2.574,5.287-8.946,7.484-14.231,4.913 c-48.948-23.825-96.701-27.413-128.147-26.223c-36.539,1.38-71.039,10.319-90.037,23.33c-7.759,5.313-12.186,10.927-11.845,15.017 c1.298,15.565,18.318,42.781,41.389,66.184c25.039,25.397,52.317,41.805,71.191,42.822c30.636,1.673,84.474-62.476,113.211-105.978 l17.769,11.73c-2.028,3.069-20.48,30.734-44.8,58.259C186.029,324.044,158.169,342.824,135.009,342.824z"/> <path d="M203.304,424.473c-10.555,0-21.672-2.66-32.15-7.693c-14.572-6.985-48.481-29.221-48.481-84.648 c0-5.88,4.766-10.646,10.646-10.646c5.88,0,10.646,4.766,10.646,10.646c0,41.768,22.806,58.935,36.4,65.452 c7.517,3.611,15.661,5.596,22.939,5.596c22.008,0,42.05-20.804,42.05-43.647c0-5.88,4.766-10.646,10.646-10.646 c5.88,0,10.646,4.766,10.646,10.646C266.646,394.128,237.048,424.473,203.304,424.473z"/> <path d="M376.991,342.824c-23.161,0.002-51.018-18.778-85.063-57.311c-24.32-27.525-42.772-55.189-44.796-58.253 c-3.241-4.906-1.893-11.512,3.013-14.753c4.907-3.241,11.508-1.894,14.748,3.012c28.742,43.509,82.608,107.626,113.215,105.985 c18.874-1.017,46.152-17.425,71.191-42.822c23.072-23.403,40.093-50.62,41.389-66.184c0.648-7.787-16.773-23.508-56.229-32.515 c-5.732-1.308-9.318-7.015-8.009-12.748c1.309-5.733,7.018-9.321,12.748-8.009c46.787,10.681,74.647,31.771,72.708,55.04 c-2.096,25.158-25.883,57.492-47.445,79.363c-13.945,14.145-50.162,47.247-85.208,49.135 C378.506,342.804,377.749,342.824,376.991,342.824z"/> <path d="M408.552,175.561c-0.383,0-0.77-0.021-1.159-0.063c-1.248-0.135-2.504-0.262-3.768-0.379 c-5.854-0.545-10.158-5.733-9.613-11.587c0.546-5.854,5.734-10.155,11.587-9.613c1.371,0.128,2.733,0.265,4.086,0.412 c5.846,0.633,10.071,5.885,9.437,11.73C418.532,171.517,413.917,175.561,408.552,175.561z"/> <path d="M256.009,201.45c-3.946,0-7.737-2.203-9.58-5.989c-2.573-5.287-0.374-11.658,4.913-14.231 c36.179-17.609,77.58-27.457,119.727-28.478c5.855-0.155,10.757,4.506,10.9,10.385c0.143,5.877-4.506,10.757-10.385,10.9 c-39.115,0.947-77.473,10.055-110.924,26.337C259.16,201.103,257.571,201.45,256.009,201.45z"/> <path d="M308.696,424.473c-33.742,0-63.342-30.345-63.342-64.938c0-5.88,4.766-10.646,10.646-10.646 c5.88,0,10.646,4.766,10.646,10.646c0,22.843,20.043,43.647,42.05,43.647c8.905,0,19.012-2.973,27.73-8.16 c11.805-7.023,31.609-24.532,31.609-62.889c0-5.88,4.766-10.646,10.646-10.646c5.88,0,10.646,4.766,10.646,10.646 c0,48.892-26.325,71.853-42.015,81.188C335.221,420.513,321.507,424.473,308.696,424.473z"/> <path d="M256,370.18c-5.88,0-10.646-4.766-10.646-10.646V159.929c0-5.88,4.766-10.646,10.646-10.646s10.646,4.766,10.646,10.646 v199.606C266.646,365.414,261.88,370.18,256,370.18z"/> <path d="M256.005,170.575c-3.027,0-6.032-1.283-8.139-3.776l-52.164-61.754c-3.793-4.491-3.228-11.209,1.264-15.002 c4.489-3.794,11.207-3.23,15.002,1.264l52.164,61.754c3.793,4.491,3.228,11.209-1.264,15.002 C260.871,169.749,258.431,170.575,256.005,170.575z"/> <path d="M255.995,170.575c-2.426,0-4.865-0.825-6.864-2.513c-4.491-3.793-5.057-10.51-1.264-15.002l52.164-61.754 c3.794-4.492,10.511-5.057,15.002-1.264c4.491,3.793,5.057,10.51,1.264,15.002l-52.164,61.754 C262.028,169.292,259.021,170.575,255.995,170.575z"/> <path d="M175.758,417.833c-1.408,0-2.839-0.281-4.215-0.875c-5.397-2.33-7.884-8.595-5.553-13.994l80.226-185.798 c0.065-0.15,0.133-0.299,0.205-0.447c2.577-5.283,8.957-7.489,14.241-4.911c5.184,2.528,7.4,8.701,5.047,13.923l-80.172,185.675 C183.8,415.427,179.878,417.833,175.758,417.833z"/> <path d="M341.875,414.821c-3.999,0-7.83-2.263-9.643-6.122l-85.851-182.772c-2.481-5.259-0.285-11.562,4.957-14.119 c5.283-2.579,11.653-0.395,14.23,4.89l0.011,0.021c0.022,0.047,0.045,0.094,0.067,0.142l85.857,182.786 c2.5,5.322,0.212,11.662-5.11,14.162C344.932,414.495,343.391,414.821,341.875,414.821z"/> </g>
</svg>